<mxfile host="app.diagrams.net" modified="2024-03-29T10:21:15.163Z" agent="Mozilla/5.0 (Windows NT 10.0; Win64; x64) AppleWebKit/537.36 (KHTML, like Gecko) Chrome/123.0.0.0 Safari/537.36 Edg/123.0.0.0" version="24.2.0" etag="3yIceqfFjLj8ja-E4iTU" type="github">
  <diagram name="第 1 页" id="a2EhCgCxbwWyWTf8B1By">
    <mxGraphModel>
      <root>
        <mxCell id="0" />
        <mxCell id="1" parent="0" />
      </root>
    </mxGraphModel>
  </diagram>
</mxfile>
